<svg preserveAspectRatio="none" overflow="visible" style="display: block;" width="7.20002" height="7.2" viewBox="0 0 7.20002 7.2" fill="none" xmlns="http://www.w3.org/2000/svg">
<path id="Rectangle 2472" opacity="0.7" d="M0.0488509 0.71336C-0.138286 0.314985 0.24369 -0.113259 0.660779 0.0273107L2.52991 0.657258C3.44301 0.964996 4.43653 0.932607 5.32765 0.566052L6.43875 0.109005C6.8494 -0.0599114 7.25994 0.350603 7.09105 0.761258L6.63396 1.87266C6.2675 2.76369 6.23513 3.75708 6.54281 4.67008L7.17271 6.53923C7.31327 6.95632 6.88503 7.33828 6.48666 7.15115L5.24869 6.56961C4.17194 6.06381 2.92586 6.0638 1.8491 6.56958L0.804545 7.06024C0.380987 7.25919 -0.059209 6.819 0.139748 6.39544L0.630403 5.35088C1.13619 4.27412 1.13618 3.02804 0.63037 1.95129L0.0488509 0.71336Z" fill="black" fill-opacity="0.45"/>
</svg>
