<svg xmlns="http://www.w3.org/2000/svg" width="24" height="24" fill="none"><path fill="#09161A" fill-opacity=".95" d="M13.966 1.595a6 6 0 0 0-.854 1.646h-6.96a3.506 3.506 0 0 0-3.505 3.506v11.101a3.506 3.506 0 0 0 3.505 3.505h11.101a3.506 3.506 0 0 0 3.506-3.505v-6.964c.596-.2 1.15-.49 1.646-.854v7.818A5.15 5.15 0 0 1 17.253 23H6.152A5.15 5.15 0 0 1 1 17.848V6.747a5.153 5.153 0 0 1 5.152-5.152z"/><path fill="#09161A" fill-opacity=".95" d="M6.274 9.72v1.952h3.169V9.721q0-.419.198-.628a.7.7 0 0 1 .529-.209q.33 0 .534.21.207.204.207.627v5.367q0 .423-.207.632a.72.72 0 0 1-.534.209.7.7 0 0 1-.53-.21q-.197-.213-.197-.631v-2.291h-3.17v2.29q0 .425-.207.633a.72.72 0 0 1-.534.209.7.7 0 0 1-.529-.21q-.198-.213-.198-.631V9.72q0-.419.193-.628.198-.21.534-.209.332 0 .534.21.208.204.208.627M13.646 9h1.914q.746 0 1.28.13.535.13.97.488 1.132.911 1.132 2.77 0 .613-.114 1.12a3.2 3.2 0 0 1-.351.915q-.238.405-.608.725a2.5 2.5 0 0 1-.638.395q-.346.15-.747.21-.395.06-.895.06h-1.913q-.4 0-.603-.112a.56.56 0 0 1-.267-.32q-.06-.21-.06-.54V9.847q0-.446.213-.646.212-.2.687-.2m.569 1.092v4.624h1.112q.366 0 .574-.018.208-.02.43-.093.222-.075.386-.21.735-.585.736-2.016 0-1.008-.326-1.51-.321-.502-.796-.637a4.1 4.1 0 0 0-1.147-.14z"/><path fill="#09161A" fill-opacity=".95" fill-rule="evenodd" d="M19.432 1a3.568 3.568 0 1 1 0 7.136 3.568 3.568 0 0 1 0-7.136m-.387 1.971a.535.535 0 0 0-.803.463v2.267c0 .411.447.669.803.463l1.962-1.133a.535.535 0 0 0 0-.927z" clip-rule="evenodd"/></svg>