<svg xmlns="http://www.w3.org/2000/svg" width="24" height="24" fill="none"><path fill="#09161A" fill-opacity=".95" d="M6.16 9.81c.27-3.16 2.88-5.63 6.06-5.63s5.79 2.47 6.06 5.63v.15h1.18v-.18C19.16 5.99 16.04 3 12.22 3 8.41 3 5.28 5.99 5 9.78v.18h1.15v-.15zm10.8 6.6c-.4.7-.88 1.29-1.39 1.77l-.22.2c-1.14 1-2.35 1.44-3.1 1.44h-.03c-1.6-.09-3.56-1.11-4.79-3.41l-.05-.09H6.09l.11.24c1.38 2.91 3.82 4.31 5.97 4.43h.08c1.11 0 2.58-.6 3.86-1.73l.29-.27c.67-.65 1.3-1.46 1.79-2.43l.12-.24H17l-.05.08zm-12.8-2.33h3.36c.35 0 .63-.27.63-.61s-.28-.61-.63-.61H4.11l.71-.73c.21-.22.21-.58 0-.79a.55.55 0 0 0-.78 0l-2.02 2.09 2.01 2.12c.21.22.56.23.78.01s.23-.57.01-.79l-.65-.69zm15.82-2.74a.543.543 0 0 0-.78 0c-.22.22-.22.57 0 .79l.71.73H16.5c-.35 0-.63.27-.63.61s.28.61.63.61h3.35l-.65.69c-.21.22-.21.58.01.79s.57.21.78-.01L22 13.43zm-6.25 4.88c-.19.41-.82.82-1.7.82-.82 0-1.43-.36-1.66-.74l-.04-.08-.05-.08a.48.48 0 0 0-.58-.15.46.46 0 0 0-.26.53l.03.09.08.16c.44.76 1.43 1.21 2.48 1.21 1.11 0 2.16-.51 2.56-1.37.11-.24 0-.51-.23-.62a.48.48 0 0 0-.63.23"/></svg>